{
  "accessors": [
    {
      "bufferView": 2,
      "componentType": 5126,
      "count": 3700,
      "max": [
        2.755495071411133,
        2.445100784301758,
        2.1464273929595947
      ],
      "min": [
        -6.514586925506592,
        -2.445100784301758,
        -1.6702864170074463
      ],
      "type": "VEC3"
    },
    {
      "bufferView": 2,
      "byteOffset": 44400,
      "componentType": 5126,
      "count": 3700,
      "max": [
        0.9977208971977234,
        0.9999201893806458,
        0.9998425841331482
      ],
      "min": [
        -0.9988476634025574,
        -0.9999201893806458,
        -0.9999986886978149
      ],
      "type": "VEC3"
    },
    {
      "bufferView": 3,
      "componentType": 5126,
      "count": 3700,
      "max": [
        0.9998928904533386,
        0.99956876039505,
        0.999841034412384,
        1.0
      ],
      "min": [
        -0.9998369216918945,
        -0.9999154210090637,
        -0.9793295860290527,
        1.0
      ],
      "type": "VEC4"
    },
    {
      "bufferView": 1,
      "componentType": 5126,
      "count": 3700,
      "max": [
        0.9945335984230042,
        0.9541251063346863
      ],
      "min": [
        0.00546427583321929,
        0.005711951293051243
      ],
      "type": "VEC2"
    },
    {
      "bufferView": 1,
      "byteOffset": 29600,
      "componentType": 5126,
      "count": 3700,
      "max": [
        0.9945335984230042,
        0.9541251063346863
      ],
      "min": [
        0.00546427583321929,
        0.005711951293051243
      ],
      "type": "VEC2"
    },
    {
      "bufferView": 0,
      "componentType": 5125,
      "count": 18912,
      "type": "SCALAR"
    },
    {
      "bufferView": 2,
      "byteOffset": 88800,
      "componentType": 5126,
      "count": 57876,
      "max": [
        1.7405849695205688,
        2.381488561630249,
        2.219304323196411
      ],
      "min": [
        0.5609540343284607,
        -2.3945446014404297,
        0.3328324258327484
      ],
      "type": "VEC3"
    },
    {
      "bufferView": 2,
      "byteOffset": 783312,
      "componentType": 5126,
      "count": 57876,
      "max": [
        0.9999942779541016,
        0.9999579787254333,
        0.9997833371162415
      ],
      "min": [
        -0.9999683499336243,
        -0.9999836087226868,
        -0.9995934963226318
      ],
      "type": "VEC3"
    },
    {
      "bufferView": 0,
      "byteOffset": 75648,
      "componentType": 5125,
      "count": 57876,
      "type": "SCALAR"
    }
  ],
  "asset": {
    "extras": {
      "author": "varin (https://sketchfab.com/Varin)",
      "license": "CC-BY-4.0 (http://creativecommons.org/licenses/by/4.0/)",
      "source": "https://sketchfab.com/3d-models/axolotl-8f3849a57d594233bfe3c92b1db6145e",
      "title": "Axolotl"
    },
    "generator": "Sketchfab-15.91.0",
    "version": "2.0"
  },
  "bufferViews": [
    {
      "buffer": 0,
      "byteLength": 307152,
      "name": "floatBufferViews",
      "target": 34963
    },
    {
      "buffer": 0,
      "byteLength": 59200,
      "byteOffset": 307152,
      "byteStride": 8,
      "name": "floatBufferViews",
      "target": 34962
    },
    {
      "buffer": 0,
      "byteLength": 1477824,
      "byteOffset": 366352,
      "byteStride": 12,
      "name": "floatBufferViews",
      "target": 34962
    },
    {
      "buffer": 0,
      "byteLength": 59200,
      "byteOffset": 1844176,
      "byteStride": 16,
      "name": "floatBufferViews",
      "target": 34962
    }
  ],
  "buffers": [
    {
      "byteLength": 1903376,
      "uri": "scene.bin"
    }
  ],
  "extensionsRequired": [
    "KHR_materials_pbrSpecularGlossiness"
  ],
  "extensionsUsed": [
    "KHR_materials_pbrSpecularGlossiness"
  ],
  "images": [
    {
      "uri": "textures/BSurfaceMesh_diffuse.png"
    },
    {
      "uri": "textures/BSurfaceMesh_specularGlossiness.png"
    },
    {
      "uri": "textures/BSurfaceMesh_normal.png"
    },
    {
      "uri": "textures/BSurfaceMesh_occlusion.png"
    }
  ],
  "materials": [
    {
      "emissiveFactor": [
        0.15,
        0.15,
        0.15
      ],
      "emissiveTexture": {
        "index": 0
      },
      "extensions": {
        "KHR_materials_pbrSpecularGlossiness": {
          "diffuseFactor": [
            1.0,
            1.0,
            1.0,
            1.0
          ],
          "diffuseTexture": {
            "index": 0
          },
          "glossinessFactor": 1.0,
          "specularFactor": [
            0.075,
            0.075,
            0.075
          ],
          "specularGlossinessTexture": {
            "index": 1
          }
        }
      },
      "name": "BSurfaceMesh",
      "normalTexture": {
        "index": 2,
        "scale": 0.38247735612146627
      },
      "occlusionTexture": {
        "index": 3,
        "strength": 0.06552400921602808
      }
    },
    {
      "doubleSided": true,
      "extensions": {
        "KHR_materials_pbrSpecularGlossiness": {
          "diffuseFactor": [
            0.9504074916579607,
            0.7703810751461827,
            0.7703810751461827,
            1.0
          ],
          "glossinessFactor": 0.0,
          "specularFactor": [
            0.0,
            0.0,
            0.0
          ]
        }
      },
      "name": "Fur_Material"
    }
  ],
  "meshes": [
    {
      "name": "axl_low_BSurfaceMesh_0",
      "primitives": [
        {
          "attributes": {
            "NORMAL": 1,
            "POSITION": 0,
            "TANGENT": 2,
            "TEXCOORD_0": 3,
            "TEXCOORD_1": 4
          },
          "indices": 5,
          "material": 0,
          "mode": 4
        }
      ]
    },
    {
      "name": "Curves_Fur Material_0",
      "primitives": [
        {
          "attributes": {
            "NORMAL": 7,
            "POSITION": 6
          },
          "indices": 8,
          "material": 1,
          "mode": 4
        }
      ]
    }
  ],
  "nodes": [
    {
      "children": [
        1
      ],
      "matrix": [
        0.0005242026527412236,
        0.0,
        0.0,
        0.0,
        0.0,
        1.1639637092857837e-19,
        -0.0005242026527412236,
        0.0,
        0.0,
        0.0005242026527412236,
        1.1639637092857837e-19,
        0.0,
        0.0,
        0.0,
        0.0,
        1.0
      ],
      "name": "Sketchfab_model"
    },
    {
      "children": [
        2
      ],
      "matrix": [
        1.0,
        0.0,
        0.0,
        0.0,
        0.0,
        0.0,
        1.0,
        0.0,
        0.0,
        -1.0,
        0.0,
        0.0,
        0.0,
        0.0,
        0.0,
        1.0
      ],
      "name": "a67b00c56fa847179bff1e0a03c8542d.fbx"
    },
    {
      "children": [
        3,
        5
      ],
      "name": "RootNode"
    },
    {
      "children": [
        4
      ],
      "matrix": [
        100.0,
        0.0,
        0.0,
        0.0,
        0.0,
        -1.629206793918314e-05,
        -99.99999999999868,
        0.0,
        0.0,
        99.99999999999868,
        -1.629206793918314e-05,
        0.0,
        0.0,
        0.0,
        0.0,
        1.0
      ],
      "name": "axl_low"
    },
    {
      "mesh": 0,
      "name": "axl_low_BSurfaceMesh_0"
    },
    {
      "children": [
        6
      ],
      "matrix": [
        100.0,
        0.0,
        0.0,
        0.0,
        0.0,
        -1.629206793918314e-05,
        -99.99999999999868,
        0.0,
        0.0,
        99.99999999999868,
        -1.629206793918314e-05,
        0.0,
        0.0,
        0.0,
        0.0,
        1.0
      ],
      "name": "Curves"
    },
    {
      "mesh": 1,
      "name": "Curves_Fur Material_0"
    }
  ],
  "samplers": [
    {
      "magFilter": 9729,
      "minFilter": 9987,
      "wrapS": 10497,
      "wrapT": 10497
    }
  ],
  "scene": 0,
  "scenes": [
    {
      "name": "Sketchfab_Scene",
      "nodes": [
        0
      ]
    }
  ],
  "textures": [
    {
      "sampler": 0,
      "source": 0
    },
    {
      "sampler": 0,
      "source": 1
    },
    {
      "sampler": 0,
      "source": 2
    },
    {
      "sampler": 0,
      "source": 3
    }
  ]
}
